<mxfile host="app.diagrams.net" modified="2022-06-30T10:55:47.052Z" agent="5.0 (Macintosh; Intel Mac OS X 10_15_7) AppleWebKit/537.36 (KHTML, like Gecko) Chrome/103.0.0.0 Safari/537.36" etag="SSEyggw2mmqF-39zAr17" version="20.0.1" type="github">
  <diagram id="DbKzQPEV4aRBY695_c1T" name="Page-1">
    <mxGraphModel dx="2276" dy="794" grid="1" gridSize="10" guides="1" tooltips="1" connect="1" arrows="1" fold="1" page="1" pageScale="1" pageWidth="850" pageHeight="1100" math="0" shadow="0">
      <root>
        <mxCell id="0" />
        <mxCell id="1" parent="0" />
        <mxCell id="eSgNtCCwt2hVwcudW4MC-1" value="&lt;font style=&quot;font-size: 18px;&quot;&gt;Witness&lt;/font&gt;" style="rounded=0;whiteSpace=wrap;html=1;fillColor=#f5f5f5;fontColor=#333333;strokeColor=#666666;" vertex="1" parent="1">
          <mxGeometry x="680" y="260" width="120" height="60" as="geometry" />
        </mxCell>
        <mxCell id="eSgNtCCwt2hVwcudW4MC-2" value="Block" style="rounded=1;whiteSpace=wrap;html=1;fontSize=18;" vertex="1" parent="1">
          <mxGeometry x="120" y="480" width="120" height="60" as="geometry" />
        </mxCell>
        <mxCell id="eSgNtCCwt2hVwcudW4MC-3" value="BlockContext" style="rounded=1;whiteSpace=wrap;html=1;fontSize=18;fillColor=#d5e8d4;strokeColor=#82b366;" vertex="1" parent="1">
          <mxGeometry x="280" y="480" width="120" height="60" as="geometry" />
        </mxCell>
        <mxCell id="eSgNtCCwt2hVwcudW4MC-4" value="Transaction" style="rounded=1;whiteSpace=wrap;html=1;fontSize=18;fillColor=#d5e8d4;strokeColor=#82b366;" vertex="1" parent="1">
          <mxGeometry x="440" y="480" width="120" height="60" as="geometry" />
        </mxCell>
        <mxCell id="eSgNtCCwt2hVwcudW4MC-5" value="Call" style="rounded=1;whiteSpace=wrap;html=1;fontSize=18;" vertex="1" parent="1">
          <mxGeometry x="600" y="480" width="120" height="60" as="geometry" />
        </mxCell>
        <mxCell id="eSgNtCCwt2hVwcudW4MC-6" value="ExecStep" style="rounded=1;whiteSpace=wrap;html=1;fontSize=18;" vertex="1" parent="1">
          <mxGeometry x="760" y="480" width="120" height="60" as="geometry" />
        </mxCell>
        <mxCell id="eSgNtCCwt2hVwcudW4MC-7" value="Bytecode" style="rounded=1;whiteSpace=wrap;html=1;fontSize=18;fillColor=#d5e8d4;strokeColor=#82b366;" vertex="1" parent="1">
          <mxGeometry x="920" y="480" width="120" height="60" as="geometry" />
        </mxCell>
        <mxCell id="eSgNtCCwt2hVwcudW4MC-8" value="RwMap" style="rounded=1;whiteSpace=wrap;html=1;fontSize=18;fillColor=#d5e8d4;strokeColor=#82b366;" vertex="1" parent="1">
          <mxGeometry x="1080" y="480" width="120" height="60" as="geometry" />
        </mxCell>
        <mxCell id="eSgNtCCwt2hVwcudW4MC-9" value="RwRow" style="rounded=1;whiteSpace=wrap;html=1;fontSize=18;" vertex="1" parent="1">
          <mxGeometry x="1240" y="480" width="120" height="60" as="geometry" />
        </mxCell>
        <mxCell id="eSgNtCCwt2hVwcudW4MC-10" value="" style="endArrow=classic;html=1;rounded=0;fontSize=18;exitX=0.5;exitY=1;exitDx=0;exitDy=0;entryX=0.5;entryY=0;entryDx=0;entryDy=0;strokeWidth=1.5;" edge="1" parent="1" source="eSgNtCCwt2hVwcudW4MC-1" target="eSgNtCCwt2hVwcudW4MC-2">
          <mxGeometry width="50" height="50" relative="1" as="geometry">
            <mxPoint x="720" y="430" as="sourcePoint" />
            <mxPoint x="770" y="380" as="targetPoint" />
          </mxGeometry>
        </mxCell>
        <mxCell id="eSgNtCCwt2hVwcudW4MC-11" value="" style="endArrow=classic;html=1;rounded=0;fontSize=18;exitX=0.5;exitY=1;exitDx=0;exitDy=0;entryX=0.5;entryY=0;entryDx=0;entryDy=0;strokeWidth=1.5;" edge="1" parent="1" source="eSgNtCCwt2hVwcudW4MC-1" target="eSgNtCCwt2hVwcudW4MC-3">
          <mxGeometry width="50" height="50" relative="1" as="geometry">
            <mxPoint x="750" y="410" as="sourcePoint" />
            <mxPoint x="190" y="490" as="targetPoint" />
          </mxGeometry>
        </mxCell>
        <mxCell id="eSgNtCCwt2hVwcudW4MC-12" value="" style="endArrow=classic;html=1;rounded=0;fontSize=18;exitX=0.5;exitY=1;exitDx=0;exitDy=0;entryX=0.5;entryY=0;entryDx=0;entryDy=0;strokeWidth=1.5;" edge="1" parent="1" source="eSgNtCCwt2hVwcudW4MC-1" target="eSgNtCCwt2hVwcudW4MC-4">
          <mxGeometry width="50" height="50" relative="1" as="geometry">
            <mxPoint x="750" y="410" as="sourcePoint" />
            <mxPoint x="350" y="490" as="targetPoint" />
          </mxGeometry>
        </mxCell>
        <mxCell id="eSgNtCCwt2hVwcudW4MC-13" value="" style="endArrow=classic;html=1;rounded=0;fontSize=18;exitX=0.5;exitY=1;exitDx=0;exitDy=0;entryX=0.5;entryY=0;entryDx=0;entryDy=0;strokeWidth=1.5;" edge="1" parent="1" source="eSgNtCCwt2hVwcudW4MC-1" target="eSgNtCCwt2hVwcudW4MC-5">
          <mxGeometry width="50" height="50" relative="1" as="geometry">
            <mxPoint x="750" y="410" as="sourcePoint" />
            <mxPoint x="510" y="490" as="targetPoint" />
          </mxGeometry>
        </mxCell>
        <mxCell id="eSgNtCCwt2hVwcudW4MC-14" value="" style="endArrow=classic;html=1;rounded=0;fontSize=18;exitX=0.5;exitY=1;exitDx=0;exitDy=0;entryX=0.5;entryY=0;entryDx=0;entryDy=0;strokeWidth=1.5;" edge="1" parent="1" source="eSgNtCCwt2hVwcudW4MC-1" target="eSgNtCCwt2hVwcudW4MC-6">
          <mxGeometry width="50" height="50" relative="1" as="geometry">
            <mxPoint x="750" y="410" as="sourcePoint" />
            <mxPoint x="670" y="490" as="targetPoint" />
          </mxGeometry>
        </mxCell>
        <mxCell id="eSgNtCCwt2hVwcudW4MC-15" value="" style="endArrow=classic;html=1;rounded=0;fontSize=18;exitX=0.5;exitY=1;exitDx=0;exitDy=0;entryX=0.5;entryY=0;entryDx=0;entryDy=0;strokeWidth=1.5;" edge="1" parent="1" source="eSgNtCCwt2hVwcudW4MC-1" target="eSgNtCCwt2hVwcudW4MC-7">
          <mxGeometry width="50" height="50" relative="1" as="geometry">
            <mxPoint x="770" y="400" as="sourcePoint" />
            <mxPoint x="850" y="480" as="targetPoint" />
          </mxGeometry>
        </mxCell>
        <mxCell id="eSgNtCCwt2hVwcudW4MC-16" value="" style="endArrow=classic;html=1;rounded=0;fontSize=18;entryX=0.5;entryY=0;entryDx=0;entryDy=0;strokeWidth=1.5;exitX=0.5;exitY=1;exitDx=0;exitDy=0;" edge="1" parent="1" source="eSgNtCCwt2hVwcudW4MC-1" target="eSgNtCCwt2hVwcudW4MC-8">
          <mxGeometry width="50" height="50" relative="1" as="geometry">
            <mxPoint x="890" y="400" as="sourcePoint" />
            <mxPoint x="990" y="490" as="targetPoint" />
          </mxGeometry>
        </mxCell>
        <mxCell id="eSgNtCCwt2hVwcudW4MC-17" value="" style="endArrow=classic;html=1;rounded=0;fontSize=18;entryX=0.5;entryY=0;entryDx=0;entryDy=0;strokeWidth=1.5;exitX=0.5;exitY=1;exitDx=0;exitDy=0;" edge="1" parent="1" source="eSgNtCCwt2hVwcudW4MC-1" target="eSgNtCCwt2hVwcudW4MC-9">
          <mxGeometry width="50" height="50" relative="1" as="geometry">
            <mxPoint x="900" y="320" as="sourcePoint" />
            <mxPoint x="1150" y="490" as="targetPoint" />
          </mxGeometry>
        </mxCell>
        <mxCell id="eSgNtCCwt2hVwcudW4MC-20" value="&lt;div style=&quot;font-size: 14px;&quot;&gt;&lt;span style=&quot;background-color: initial; font-size: 14px;&quot;&gt;randomness: F,&lt;/span&gt;&lt;br style=&quot;font-size: 14px;&quot;&gt;&lt;/div&gt;&lt;div style=&quot;font-size: 14px;&quot;&gt;&lt;span style=&quot;background-color: initial; font-size: 14px;&quot;&gt;txs: Vec&amp;lt;Transaction&amp;gt;,&lt;/span&gt;&lt;br style=&quot;font-size: 14px;&quot;&gt;&lt;/div&gt;&lt;div style=&quot;font-size: 14px;&quot;&gt;&lt;span style=&quot;background-color: initial; font-size: 14px;&quot;&gt;rws: RwMap,&lt;/span&gt;&lt;br style=&quot;font-size: 14px;&quot;&gt;&lt;/div&gt;&lt;div style=&quot;font-size: 14px;&quot;&gt;&lt;span style=&quot;background-color: initial; font-size: 14px;&quot;&gt;bytecodes: Vec&amp;lt;Bytecode&amp;gt;,&lt;/span&gt;&lt;br style=&quot;font-size: 14px;&quot;&gt;&lt;/div&gt;&lt;div style=&quot;font-size: 14px;&quot;&gt;&lt;span style=&quot;background-color: initial; font-size: 14px;&quot;&gt;context: BlockContext,&lt;/span&gt;&lt;br style=&quot;font-size: 14px;&quot;&gt;&lt;/div&gt;" style="rounded=0;whiteSpace=wrap;html=1;fontSize=14;align=left;spacingLeft=10;" vertex="1" parent="1">
          <mxGeometry x="-20" y="640" width="200" height="120" as="geometry" />
        </mxCell>
        <mxCell id="eSgNtCCwt2hVwcudW4MC-23" value="&lt;div style=&quot;font-size: 14px;&quot;&gt;coinbase&lt;br&gt;gas_limit&lt;br&gt;number&lt;br&gt;timestamp&lt;br&gt;difficulty&lt;br&gt;base_fee&lt;br&gt;history_hashes&lt;br&gt;chain_id&lt;/div&gt;" style="rounded=0;whiteSpace=wrap;html=1;fontSize=14;align=left;spacingLeft=10;fillColor=#d5e8d4;strokeColor=#82b366;" vertex="1" parent="1">
          <mxGeometry x="210" y="640" width="115" height="170" as="geometry" />
        </mxCell>
        <mxCell id="eSgNtCCwt2hVwcudW4MC-24" value="&lt;div style=&quot;font-size: 14px;&quot;&gt;id&lt;br&gt;nonce&lt;br&gt;gas&lt;br&gt;gas_price&lt;br&gt;caller_address&lt;br&gt;callee_address&lt;br&gt;is_create、&lt;br&gt;value&lt;br&gt;call_data&lt;br&gt;call_data_length&lt;br&gt;call_data_gas_cost&lt;/div&gt;&lt;div style=&quot;font-size: 14px;&quot;&gt;&lt;b&gt;calls&lt;/b&gt;&lt;br&gt;&lt;b&gt;steps&lt;/b&gt;&lt;/div&gt;" style="rounded=0;whiteSpace=wrap;html=1;fontSize=14;align=left;spacingLeft=10;fillColor=#d5e8d4;strokeColor=#82b366;" vertex="1" parent="1">
          <mxGeometry x="350" y="640" width="140" height="240" as="geometry" />
        </mxCell>
        <mxCell id="eSgNtCCwt2hVwcudW4MC-25" value="" style="endArrow=classic;html=1;rounded=0;fontSize=14;strokeWidth=2;exitX=0.5;exitY=1;exitDx=0;exitDy=0;entryX=0.5;entryY=0;entryDx=0;entryDy=0;fillColor=#f8cecc;strokeColor=#FF3333;" edge="1" parent="1" source="eSgNtCCwt2hVwcudW4MC-2" target="eSgNtCCwt2hVwcudW4MC-20">
          <mxGeometry width="50" height="50" relative="1" as="geometry">
            <mxPoint x="660" y="570" as="sourcePoint" />
            <mxPoint x="710" y="520" as="targetPoint" />
          </mxGeometry>
        </mxCell>
        <mxCell id="eSgNtCCwt2hVwcudW4MC-26" value="" style="endArrow=classic;html=1;rounded=0;fontSize=14;strokeWidth=2;exitX=0.5;exitY=1;exitDx=0;exitDy=0;entryX=0.5;entryY=0;entryDx=0;entryDy=0;fillColor=#f8cecc;strokeColor=#FF3333;" edge="1" parent="1" source="eSgNtCCwt2hVwcudW4MC-3" target="eSgNtCCwt2hVwcudW4MC-23">
          <mxGeometry width="50" height="50" relative="1" as="geometry">
            <mxPoint x="190" y="550" as="sourcePoint" />
            <mxPoint x="150" y="650" as="targetPoint" />
          </mxGeometry>
        </mxCell>
        <mxCell id="eSgNtCCwt2hVwcudW4MC-27" value="" style="endArrow=classic;html=1;rounded=0;fontSize=14;strokeWidth=2;exitX=0.5;exitY=1;exitDx=0;exitDy=0;entryX=0.5;entryY=0;entryDx=0;entryDy=0;fillColor=#f8cecc;strokeColor=#FF3333;" edge="1" parent="1" source="eSgNtCCwt2hVwcudW4MC-4" target="eSgNtCCwt2hVwcudW4MC-24">
          <mxGeometry width="50" height="50" relative="1" as="geometry">
            <mxPoint x="350" y="550" as="sourcePoint" />
            <mxPoint x="350" y="650" as="targetPoint" />
          </mxGeometry>
        </mxCell>
        <mxCell id="eSgNtCCwt2hVwcudW4MC-28" value="&lt;div style=&quot;font-size: 14px;&quot;&gt;&lt;div&gt;hash: Word,&lt;/div&gt;&lt;div&gt;bytes: Vec&amp;lt;u8&amp;gt;,&lt;/div&gt;&lt;/div&gt;" style="rounded=0;whiteSpace=wrap;html=1;fontSize=14;align=left;spacingLeft=10;fillColor=#d5e8d4;strokeColor=#82b366;" vertex="1" parent="1">
          <mxGeometry x="970" y="640" width="120" height="60" as="geometry" />
        </mxCell>
        <mxCell id="eSgNtCCwt2hVwcudW4MC-29" value="&lt;div style=&quot;&quot;&gt;HashMap&amp;lt;RwTableTag, Vec&amp;lt;Rw&amp;gt;&amp;gt;&lt;br&gt;&lt;/div&gt;" style="rounded=0;whiteSpace=wrap;html=1;fontSize=14;align=left;spacingLeft=10;fillColor=#d5e8d4;strokeColor=#82b366;" vertex="1" parent="1">
          <mxGeometry x="1130" y="640" width="240" height="40" as="geometry" />
        </mxCell>
        <mxCell id="eSgNtCCwt2hVwcudW4MC-30" value="" style="endArrow=classic;html=1;rounded=0;fontSize=14;strokeWidth=2;exitX=0.5;exitY=1;exitDx=0;exitDy=0;entryX=0.5;entryY=0;entryDx=0;entryDy=0;fillColor=#f8cecc;strokeColor=#FF3333;" edge="1" parent="1" source="eSgNtCCwt2hVwcudW4MC-7" target="eSgNtCCwt2hVwcudW4MC-28">
          <mxGeometry width="50" height="50" relative="1" as="geometry">
            <mxPoint x="510" y="550" as="sourcePoint" />
            <mxPoint x="510" y="650" as="targetPoint" />
          </mxGeometry>
        </mxCell>
        <mxCell id="eSgNtCCwt2hVwcudW4MC-31" value="" style="endArrow=classic;html=1;rounded=0;fontSize=14;strokeWidth=2;exitX=0.5;exitY=1;exitDx=0;exitDy=0;entryX=0.5;entryY=0;entryDx=0;entryDy=0;fillColor=#f8cecc;strokeColor=#FF3333;" edge="1" parent="1" source="eSgNtCCwt2hVwcudW4MC-8" target="eSgNtCCwt2hVwcudW4MC-29">
          <mxGeometry width="50" height="50" relative="1" as="geometry">
            <mxPoint x="990" y="550" as="sourcePoint" />
            <mxPoint x="990" y="650" as="targetPoint" />
          </mxGeometry>
        </mxCell>
        <mxCell id="eSgNtCCwt2hVwcudW4MC-32" value="&lt;div style=&quot;font-size: 14px;&quot;&gt;id&lt;br&gt;is_root&lt;br&gt;is_create&lt;br&gt;code_source&lt;br&gt;&lt;div&gt;rw_counter_end_of_reversion&lt;/div&gt;&lt;div&gt;&lt;span style=&quot;background-color: initial;&quot;&gt;caller_id&lt;br&gt;&lt;/span&gt;&lt;span style=&quot;background-color: initial;&quot;&gt;depth&lt;br&gt;&lt;/span&gt;&lt;span style=&quot;background-color: initial;&quot;&gt;caller_address&lt;br&gt;&lt;/span&gt;&lt;span style=&quot;background-color: initial;&quot;&gt;callee_address&lt;br&gt;&lt;/span&gt;&lt;span style=&quot;background-color: initial;&quot;&gt;call_data_offset&lt;br&gt;&lt;/span&gt;&lt;span style=&quot;background-color: initial;&quot;&gt;call_data_length&lt;br&gt;&lt;/span&gt;&lt;span style=&quot;background-color: initial;&quot;&gt;return_data_offset&lt;br&gt;&lt;/span&gt;&lt;span style=&quot;background-color: initial;&quot;&gt;return_data_length&lt;br&gt;&lt;/span&gt;&lt;span style=&quot;background-color: initial;&quot;&gt;value&lt;br&gt;&lt;/span&gt;&lt;span style=&quot;background-color: initial;&quot;&gt;is_success&lt;br&gt;&lt;/span&gt;&lt;span style=&quot;background-color: initial;&quot;&gt;is_persistent&lt;br&gt;&lt;/span&gt;&lt;span style=&quot;background-color: initial;&quot;&gt;is_static&lt;/span&gt;&lt;/div&gt;&lt;/div&gt;" style="rounded=0;whiteSpace=wrap;html=1;fontSize=14;align=left;spacingLeft=10;" vertex="1" parent="1">
          <mxGeometry x="520" y="640" width="200" height="300" as="geometry" />
        </mxCell>
        <mxCell id="eSgNtCCwt2hVwcudW4MC-33" value="" style="endArrow=classic;html=1;rounded=0;fontSize=14;strokeWidth=2;exitX=0.5;exitY=1;exitDx=0;exitDy=0;entryX=0.5;entryY=0;entryDx=0;entryDy=0;fillColor=#f8cecc;strokeColor=#FF3333;" edge="1" parent="1" source="eSgNtCCwt2hVwcudW4MC-5" target="eSgNtCCwt2hVwcudW4MC-32">
          <mxGeometry width="50" height="50" relative="1" as="geometry">
            <mxPoint x="510" y="550" as="sourcePoint" />
            <mxPoint x="460" y="650" as="targetPoint" />
          </mxGeometry>
        </mxCell>
        <mxCell id="eSgNtCCwt2hVwcudW4MC-34" value="&lt;div style=&quot;font-size: 14px;&quot;&gt;&lt;div&gt;call_index&lt;br&gt;&lt;span style=&quot;background-color: initial;&quot;&gt;rw_indices&lt;br&gt;&lt;/span&gt;&lt;span style=&quot;background-color: initial;&quot;&gt;execution_state&lt;br&gt;&lt;/span&gt;&lt;span style=&quot;background-color: initial;&quot;&gt;rw_counter&lt;br&gt;&lt;/span&gt;&lt;span style=&quot;background-color: initial;&quot;&gt;program_counter&lt;br&gt;&lt;/span&gt;&lt;span style=&quot;background-color: initial;&quot;&gt;stack_pointer&lt;br&gt;&lt;/span&gt;&lt;span style=&quot;background-color: initial;&quot;&gt;gas_left&lt;br&gt;&lt;/span&gt;&lt;span style=&quot;background-color: initial;&quot;&gt;gas_cost&lt;br&gt;&lt;/span&gt;&lt;span style=&quot;background-color: initial;&quot;&gt;memory_size&lt;br&gt;&lt;/span&gt;&lt;span style=&quot;background-color: initial;&quot;&gt;reversible_write_counter&lt;br&gt;&lt;/span&gt;&lt;span style=&quot;background-color: initial;&quot;&gt;log_id&lt;br&gt;&lt;/span&gt;&lt;span style=&quot;background-color: initial;&quot;&gt;opcode&lt;br&gt;&lt;/span&gt;&lt;span style=&quot;background-color: initial;&quot;&gt;aux_data&lt;/span&gt;&lt;/div&gt;&lt;/div&gt;" style="rounded=0;whiteSpace=wrap;html=1;fontSize=14;align=left;spacingLeft=10;" vertex="1" parent="1">
          <mxGeometry x="770" y="640" width="170" height="230" as="geometry" />
        </mxCell>
        <mxCell id="eSgNtCCwt2hVwcudW4MC-35" value="" style="endArrow=classic;html=1;rounded=0;fontSize=14;strokeWidth=2;exitX=0.5;exitY=1;exitDx=0;exitDy=0;entryX=0.5;entryY=0;entryDx=0;entryDy=0;fillColor=#f8cecc;strokeColor=#FF3333;" edge="1" parent="1" source="eSgNtCCwt2hVwcudW4MC-6" target="eSgNtCCwt2hVwcudW4MC-34">
          <mxGeometry width="50" height="50" relative="1" as="geometry">
            <mxPoint x="670" y="550" as="sourcePoint" />
            <mxPoint x="650" y="650" as="targetPoint" />
          </mxGeometry>
        </mxCell>
      </root>
    </mxGraphModel>
  </diagram>
</mxfile>
